<svg width="45" height="45" viewBox="0 0 45 45" fill="none" xmlns="http://www.w3.org/2000/svg">
<path d="M16.875 14.0713H9.53438C11.3531 11.2761 14.0265 9.14357 17.156 7.9915C20.2855 6.83942 23.7035 6.72953 26.9005 7.6782C30.0975 8.62687 32.9024 10.5833 34.8969 13.2559C36.8915 15.9284 37.969 19.174 37.9688 22.5088H40.7813C40.7851 18.7478 39.6289 15.0771 37.4702 11.9972C35.3115 8.9174 32.2554 6.57832 28.7187 5.29894C25.182 4.01956 21.3367 3.86216 17.7072 4.84819C14.0777 5.83423 10.8407 7.91571 8.4375 10.8088V5.63381H5.625V16.8838H16.875V14.0713Z" fill="black"/>
<path d="M28.125 30.9464H35.4657C33.6469 33.7415 30.9735 35.8741 27.844 37.0262C24.7146 38.1783 21.2966 38.2882 18.0995 37.3395C14.9025 36.3908 12.0977 34.4344 10.1031 31.7618C8.10853 29.0893 7.03105 25.8437 7.03126 22.5089H4.21876C4.21489 26.2699 5.37113 29.9406 7.52982 33.0204C9.68851 36.1003 12.7446 38.4394 16.2813 39.7187C19.8181 40.9981 23.6634 41.1555 27.2928 40.1695C30.9223 39.1835 34.1593 37.102 36.5625 34.2089V39.3839H39.375V28.1339H28.125V30.9464Z" fill="black"/>
</svg>
