<svg width="41" height="43" viewBox="0 0 41 43" fill="none" xmlns="http://www.w3.org/2000/svg">
<path d="M32.0443 0H8.9557C4.0096 0 0 4.17876 0 9.33352V33.3962C0 38.5509 4.0096 42.7297 8.9557 42.7297H32.0443C36.9904 42.7297 41 38.5509 41 33.3962V9.33352C41 4.17876 36.9904 0 32.0443 0Z" fill="#34AADF"/>
<path d="M11.4063 20.6079C11.4063 20.6079 19.7476 16.9465 22.6405 15.6572C23.7495 15.1415 27.5103 13.4913 27.5103 13.4913C27.5103 13.4913 29.2461 12.7693 29.1014 14.5227C29.0532 15.2447 28.6675 17.7716 28.2818 20.5048C27.7032 24.3726 27.0764 28.6013 27.0764 28.6013C27.0764 28.6013 26.98 29.7875 26.1603 29.9937C25.3406 30.2 23.9905 29.2718 23.7495 29.0654C23.5566 28.9108 20.1333 26.5901 18.8797 25.4555C18.5422 25.1461 18.1565 24.5273 18.9279 23.8053C20.6637 22.1035 22.7369 19.9891 23.9905 18.6483C24.5692 18.0295 25.1477 16.5855 22.7369 18.3389C19.3136 20.8658 15.9386 23.238 15.9386 23.238C15.9386 23.238 15.1671 23.7537 13.7206 23.2896C12.2741 22.8255 10.5865 22.2066 10.5865 22.2066C10.5865 22.2066 9.42947 21.4331 11.4063 20.6079Z" fill="white"/>
</svg>
