<svg width="26" height="25" viewBox="0 0 26 25" fill="none" xmlns="http://www.w3.org/2000/svg">
<path d="M10.5968 0C16.021 0 20.4182 4.3972 20.4182 9.82143C20.4182 12.2121 19.5641 14.4033 18.1443 16.1065L25.5139 23.4758C25.8626 23.8245 25.8626 24.3898 25.5139 24.7385C25.2039 25.0484 24.7228 25.0829 24.3748 24.8418L24.2512 24.7385L16.8818 17.3689C15.1787 18.7887 12.9875 19.6429 10.5968 19.6429C5.17259 19.6429 0.775391 15.2457 0.775391 9.82143C0.775391 4.3972 5.17259 0 10.5968 0ZM10.5968 1.78571C6.15882 1.78571 2.5611 5.38343 2.5611 9.82143C2.5611 14.2594 6.15882 17.8571 10.5968 17.8571C15.0348 17.8571 18.6325 14.2594 18.6325 9.82143C18.6325 5.38343 15.0348 1.78571 10.5968 1.78571Z" fill="#212121"/>
</svg>
