<svg width="41" height="43" viewBox="0 0 41 43" fill="none" xmlns="http://www.w3.org/2000/svg">
<path d="M32.2143 0H8.78571C3.9335 0 0 4.09944 0 9.15636V33.5733C0 38.6302 3.9335 42.7297 8.78571 42.7297H32.2143C37.0665 42.7297 41 38.6302 41 33.5733V9.15636C41 4.09944 37.0665 0 32.2143 0Z" fill="url(#paint0_radial_5_149)"/>
<path d="M32.2143 0H8.78571C3.9335 0 0 4.09944 0 9.15636V33.5733C0 38.6302 3.9335 42.7297 8.78571 42.7297H32.2143C37.0665 42.7297 41 38.6302 41 33.5733V9.15636C41 4.09944 37.0665 0 32.2143 0Z" fill="url(#paint1_radial_5_149)"/>
<path d="M32.2143 0H8.78571C3.9335 0 0 4.09944 0 9.15636V33.5733C0 38.6302 3.9335 42.7297 8.78571 42.7297H32.2143C37.0665 42.7297 41 38.6302 41 33.5733V9.15636C41 4.09944 37.0665 0 32.2143 0Z" fill="url(#paint2_radial_5_149)"/>
<path d="M30.7505 12.9715C30.7505 14.2357 29.7671 15.2606 28.5541 15.2606C27.3411 15.2606 26.3577 14.2357 26.3577 12.9715C26.3577 11.7073 27.3411 10.6824 28.5541 10.6824C29.7671 10.6824 30.7505 11.7073 30.7505 12.9715Z" fill="white"/>
<path fill-rule="evenodd" clip-rule="evenodd" d="M20.4997 28.9952C24.5431 28.9952 27.8211 25.5789 27.8211 21.3649C27.8211 17.1508 24.5431 13.7346 20.4997 13.7346C16.4562 13.7346 13.1782 17.1508 13.1782 21.3649C13.1782 25.5789 16.4562 28.9952 20.4997 28.9952ZM20.4997 25.943C22.9258 25.943 24.8925 23.8934 24.8925 21.3649C24.8925 18.8363 22.9258 16.7867 20.4997 16.7867C18.0735 16.7867 16.1068 18.8363 16.1068 21.3649C16.1068 23.8934 18.0735 25.943 20.4997 25.943Z" fill="white"/>
<path fill-rule="evenodd" clip-rule="evenodd" d="M5.85767 20.7544C5.85767 15.6264 5.85767 13.0623 6.81525 11.1037C7.65757 9.38084 9.00161 7.9801 10.6548 7.10225C12.5341 6.10426 14.9944 6.10426 19.9148 6.10426H21.0862C26.0067 6.10426 28.467 6.10426 30.3462 7.10225C31.9994 7.9801 33.3435 9.38084 34.1857 11.1037C35.1434 13.0623 35.1434 15.6264 35.1434 20.7544V21.9753C35.1434 27.1033 35.1434 29.6674 34.1857 31.6259C33.3435 33.3489 31.9994 34.7496 30.3462 35.6274C28.467 36.6255 26.0067 36.6255 21.0862 36.6255H19.9148C14.9944 36.6255 12.5341 36.6255 10.6548 35.6274C9.00161 34.7496 7.65757 33.3489 6.81525 31.6259C5.85767 29.6674 5.85767 27.1033 5.85767 21.9753V20.7544ZM19.9148 9.15638H21.0862C23.5949 9.15638 25.3 9.15876 26.6182 9.27099C27.9022 9.38032 28.5588 9.57848 29.0168 9.8217C30.1188 10.4069 31.0148 11.3408 31.5764 12.4893C31.8098 12.9667 32 13.6509 32.1048 14.9891C32.2125 16.3629 32.2148 18.14 32.2148 20.7544V21.9753C32.2148 24.5897 32.2125 26.3668 32.1048 27.7406C32 29.0788 31.8098 29.7631 31.5764 30.2404C31.0148 31.3889 30.1188 32.3227 29.0168 32.908C28.5588 33.1512 27.9022 33.3495 26.6182 33.4587C25.3 33.5709 23.5949 33.5733 21.0862 33.5733H19.9148C17.4062 33.5733 15.701 33.5709 14.3829 33.4587C13.0989 33.3495 12.4423 33.1512 11.9842 32.908C10.8822 32.3227 9.98618 31.3889 9.42462 30.2404C9.19125 29.7631 9.00111 29.0788 8.89621 27.7406C8.78852 26.3668 8.78624 24.5897 8.78624 21.9753V20.7544C8.78624 18.14 8.78852 16.3629 8.89621 14.9891C9.00111 13.6509 9.19125 12.9667 9.42462 12.4893C9.98618 11.3408 10.8822 10.4069 11.9842 9.8217C12.4423 9.57848 13.0989 9.38032 14.3829 9.27099C15.701 9.15876 17.4062 9.15638 19.9148 9.15638Z" fill="white"/>
<defs>
<radialGradient id="paint0_radial_5_149" cx="0" cy="0" r="1" gradientUnits="userSpaceOnUse" gradientTransform="translate(14.6429 32.0473) rotate(-56.4745) scale(38.4426 37.8558)">
<stop stop-color="#B13589"/>
<stop offset="0.79309" stop-color="#C62F94"/>
<stop offset="1" stop-color="#8A3AC8"/>
</radialGradient>
<radialGradient id="paint1_radial_5_149" cx="0" cy="0" r="1" gradientUnits="userSpaceOnUse" gradientTransform="translate(13.1786 44.2557) rotate(-66.0274) scale(34.2375 33.3188)">
<stop stop-color="#E0E8B7"/>
<stop offset="0.444662" stop-color="#FB8A2E"/>
<stop offset="0.71474" stop-color="#E2425C"/>
<stop offset="1" stop-color="#E2425C" stop-opacity="0"/>
</radialGradient>
<radialGradient id="paint2_radial_5_149" cx="0" cy="0" r="1" gradientUnits="userSpaceOnUse" gradientTransform="translate(-2.19643 1.52606) rotate(-8.46821) scale(56.9964 12.6834)">
<stop offset="0.156701" stop-color="#406ADC"/>
<stop offset="0.467799" stop-color="#6A45BE"/>
<stop offset="1" stop-color="#6A45BE" stop-opacity="0"/>
</radialGradient>
</defs>
</svg>
