<svg width="41" height="43" viewBox="0 0 41 43" fill="none" xmlns="http://www.w3.org/2000/svg">
<path d="M34.85 0H6.15C2.75345 0 0 2.86961 0 6.40945V36.3202C0 39.8601 2.75345 42.7297 6.15 42.7297H34.85C38.2466 42.7297 41 39.8601 41 36.3202V6.40945C41 2.86961 38.2466 0 34.85 0Z" fill="#25D366"/>
<path d="M9.85055 32.7983L10.9716 27.3736C9.53071 25.005 8.9686 22.1698 9.39077 19.3999C9.81294 16.6301 11.1904 14.116 13.2647 12.3293C15.3389 10.5426 17.9675 9.60617 20.6572 9.69561C23.3468 9.78506 25.9127 10.8943 27.8735 12.8151C29.8343 14.736 31.0551 17.3365 31.307 20.1288C31.5588 22.921 30.8244 25.7131 29.2415 27.9812C27.6586 30.2492 25.336 31.8374 22.7095 32.4477C20.083 33.058 17.333 32.6485 14.9755 31.296L9.85055 32.7983Z" fill="#25D366" stroke="white" stroke-width="3.55186"/>
<path d="M24.6657 22.7836C24.4255 22.6166 24.1853 22.5332 23.945 22.867L22.9841 24.2023C22.7439 24.3692 22.5837 24.4527 22.2634 24.2858C21.0622 23.6181 19.3806 22.867 17.9392 20.3633C17.8591 20.0295 18.0193 19.8626 18.1794 19.6957L18.9001 18.5273C19.0603 18.3604 18.9802 18.1935 18.9001 18.0265L17.9392 15.6063C17.699 14.9387 17.4587 15.0221 17.2185 15.0221H16.5779C16.4177 15.0221 16.0974 15.1056 15.7771 15.4394C14.0154 17.2754 14.7361 19.8626 16.0173 21.5317C16.2575 21.8655 17.8591 24.87 21.3025 26.4556C23.865 27.624 24.4255 27.4571 25.1462 27.2902C26.0271 27.2068 26.9079 26.4556 27.3083 25.7045C27.3884 25.4542 27.7888 24.3692 27.4685 24.2023" fill="white"/>
</svg>
